<?xml version="1.0" standalone="no"?>
<!DOCTYPE svg PUBLIC "-//W3C//DTD SVG 20010904//EN"
 "http://www.w3.org/TR/2001/REC-SVG-20010904/DTD/svg10.dtd">
<svg version="1.0" xmlns="http://www.w3.org/2000/svg"
 width="160.000000pt" height="160.000000pt" viewBox="0 0 160.000000 160.000000"
 preserveAspectRatio="xMidYMid meet">
<metadata>
Created by potrace 1.14, written by Peter Selinger 2001-2017
</metadata>
<g transform="translate(0.000000,160.000000) scale(0.100000,-0.100000)"
fill="#000000" stroke="none">
<path d="M1065 1547 c-22 -13 -46 -35 -53 -50 -9 -18 -21 -27 -37 -27 -23 0
-23 1 -9 28 18 34 18 42 -1 42 -17 0 -126 -59 -136 -73 -3 -4 -10 -7 -15 -6
-35 6 -86 -40 -103 -94 -15 -44 -29 -49 -23 -8 5 35 -8 44 -43 31 -38 -14 -63
-48 -71 -95 -5 -32 -18 -50 -60 -88 -101 -91 -195 -234 -241 -367 l-22 -65 4
85 c2 47 11 121 19 165 8 44 17 95 21 114 3 19 8 37 10 41 2 4 7 21 10 38 3
17 18 67 34 111 15 45 23 76 16 71 -21 -17 -133 -249 -159 -330 -26 -77 -30
-77 -40 0 -3 25 -8 56 -11 70 -2 14 -7 39 -11 55 -13 69 -36 161 -44 180 -4
11 -18 46 -30 78 -12 31 -24 57 -27 57 -6 0 3 -64 20 -145 17 -78 23 -115 38
-225 5 -41 12 -88 14 -105 9 -66 16 -199 20 -360 4 -174 8 -220 26 -290 6 -22
13 -51 15 -65 13 -76 67 -278 79 -296 12 -19 22 -22 79 -20 36 1 67 4 70 7 2
2 6 42 10 89 5 76 27 245 41 325 12 61 48 181 63 207 21 35 42 39 91 17 59
-26 106 -63 188 -149 57 -59 73 -70 73 -54 0 26 -72 140 -114 178 -39 36 -101
64 -158 72 -37 5 -49 2 -84 -24 -33 -24 -48 -46 -73 -105 -17 -42 -38 -106
-47 -144 -8 -37 -18 -70 -21 -73 -10 -9 6 214 21 290 20 105 71 239 117 310
43 67 95 99 175 108 38 4 42 2 53 -26 7 -17 30 -43 52 -57 66 -47 87 -14 37
58 -11 15 -17 27 -14 27 13 0 46 -41 60 -73 14 -36 72 -87 97 -87 8 0 21 -16
27 -35 15 -39 70 -91 84 -77 5 5 10 19 11 31 1 23 13 28 19 9 3 -7 -6 -31 -19
-54 -24 -42 -26 -89 -8 -136 12 -31 43 -20 69 25 14 23 26 36 26 29 0 -7 -10
-26 -22 -43 -29 -38 -35 -135 -11 -169 l15 -22 29 28 c16 15 29 22 29 16 0 -7
-4 -12 -10 -12 -17 0 -40 -58 -40 -101 0 -23 9 -58 19 -78 11 -20 22 -52 25
-71 12 -72 43 -78 72 -16 10 19 25 37 35 39 23 6 26 71 5 120 -13 32 -13 33
13 32 22 0 26 4 23 25 -2 14 -12 42 -22 62 -12 24 -15 38 -8 40 17 6 1 71 -25
104 -12 15 -20 38 -19 51 3 17 -9 36 -37 65 -23 22 -41 42 -41 44 0 2 9 4 20
4 49 0 -3 82 -69 110 -28 11 -29 14 -15 25 23 16 11 33 -38 55 -41 18 -72 20
-118 6 l-25 -7 25 20 c25 20 25 20 5 35 -24 18 -72 31 -100 28 -22 -3 -107 -3
-170 1 -22 1 -49 -2 -60 -7 -17 -8 -18 -7 -8 6 12 14 84 41 100 36 4 -1 18 1
30 6 13 4 31 2 43 -4 12 -6 40 -11 63 -11 23 0 61 -7 84 -16 39 -14 81 -14
129 2 21 7 35 -4 130 -92 46 -44 62 -51 80 -33 6 6 9 0 8 -18 -1 -26 33 -102
47 -102 3 0 9 -18 12 -40 3 -23 13 -52 24 -66 10 -14 25 -38 33 -52 38 -65 53
-82 76 -82 19 0 24 7 32 43 6 29 5 51 -4 74 -11 28 -10 31 3 26 26 -10 33 18
13 58 -20 38 -73 89 -94 89 -7 0 -21 7 -32 15 -18 14 -17 15 18 13 21 -1 42 2
48 8 16 16 -28 71 -77 95 -44 21 -45 23 -25 32 12 6 22 14 22 18 0 16 -55 50
-92 55 -31 5 -36 9 -27 20 9 11 3 18 -32 33 -43 19 -85 21 -122 6 -15 -6 -18
-3 -15 21 2 24 -1 30 -22 32 -35 5 -97 -15 -119 -39 -11 -12 -25 -18 -31 -14
-8 5 -5 14 11 31 34 36 20 54 -33 43 -24 -6 -47 -14 -52 -20 -6 -5 -25 -9 -42
-9 -18 0 -44 -4 -59 -10 -33 -12 -75 -58 -75 -80 0 -11 -15 -23 -42 -34 -95
-36 -254 -178 -298 -265 -32 -64 -70 -182 -70 -217 0 -13 -4 -24 -9 -24 -9 0
-7 59 4 130 11 69 64 203 111 281 77 126 192 232 330 302 41 21 57 24 87 18
54 -13 128 38 82 55 -8 4 -15 10 -15 15 0 5 10 3 23 -6 47 -30 117 -22 138 16
10 19 10 19 31 -1 12 -11 27 -21 32 -21 47 -6 64 -5 88 3 15 6 28 16 28 23 0
19 -49 55 -82 62 -23 5 -26 9 -22 32 9 44 -14 54 -61 28z m-649 -709 c-43
-100 -72 -246 -77 -391 -1 -37 -5 -65 -8 -63 -6 4 -6 28 0 171 3 88 32 201 70
277 36 72 46 76 15 6z"/>
</g>
</svg>
